<?xml version="1.0" encoding="iso-8859-1"?>
<!-- Generator: Adobe Illustrator 19.0.0, SVG Export Plug-In . SVG Version: 6.00 Build 0)  -->
<svg version="1.1" id="Capa_1" xmlns="http://www.w3.org/2000/svg" xmlns:xlink="http://www.w3.org/1999/xlink" x="0px" y="0px"
	 viewBox="0 0 423.253 423.253" style="enable-background:new 0 0 423.253 423.253;" xml:space="preserve">
<polygon style="fill:#EAEAEA;" points="129.707,61.44 293.547,61.44 307.2,136.533 116.053,136.533 "/>
<path style="fill:#602F75;" d="M307.2,143.36H116.053c-2.028,0-3.946-0.899-5.239-2.454c-1.3-1.553-1.84-3.603-1.473-5.593
	l13.653-75.093c0.585-3.246,3.412-5.606,6.712-5.606h163.84c3.301,0,6.127,2.36,6.714,5.606l13.653,75.093
	c0.367,1.99-0.174,4.04-1.473,5.593C311.146,142.461,309.228,143.36,307.2,143.36z M124.233,129.707H299.02l-11.174-61.44H135.407
	L124.233,129.707z"/>
<path style="fill:#FFFFFF;" d="M6.827,136.497c0-15.061,12.259-27.271,27.351-27.271h354.898c15.106,0,27.351,12.182,27.351,27.271
	v198.045c0,15.061-12.259,27.271-27.351,27.271H34.178c-15.106,0-27.351-12.182-27.351-27.271V136.497z"/>
<path style="fill:#602F75;" d="M389.074,368.64H34.179C15.333,368.64,0,353.343,0,334.543V136.497
	C0,117.697,15.333,102.4,34.179,102.4h354.893c18.848,0,34.181,15.297,34.181,34.097v198.047
	C423.253,353.343,407.921,368.64,389.074,368.64z M34.179,116.053c-11.319,0-20.526,9.17-20.526,20.444v198.047
	c0,11.273,9.207,20.442,20.526,20.442h354.893c11.32,0,20.526-9.17,20.526-20.444V136.497c0.002-11.274-9.206-20.444-20.524-20.444
	H34.179z"/>
<circle style="fill:#EA3457;" cx="211.627" cy="238.933" r="102.4"/>
<path style="fill:#602F75;" d="M211.627,348.16c-60.227,0-109.227-49-109.227-109.227s49-109.227,109.227-109.227
	s109.227,49,109.227,109.227S271.853,348.16,211.627,348.16z M211.627,143.36c-52.7,0-95.573,42.873-95.573,95.573
	s42.873,95.573,95.573,95.573s95.573-42.873,95.573-95.573S264.327,143.36,211.627,143.36z"/>
<path style="fill:#00E7FF;" d="M249.274,173.945c-11.068-6.426-23.927-10.105-37.647-10.105c-41.474,0-75.093,33.62-75.093,75.093
	s33.62,75.093,75.093,75.093s75.093-33.62,75.093-75.093c0-15.123-4.471-29.203-12.162-40.987"/>
<path style="fill:#602F75;" d="M211.627,320.853c-45.174,0-81.92-36.75-81.92-81.92s36.746-81.92,81.92-81.92
	c14.44,0,28.646,3.813,41.073,11.027c3.26,1.893,4.372,6.071,2.48,9.33c-1.893,3.256-6.074,4.371-9.334,2.476
	c-10.346-6.007-22.178-9.18-34.219-9.18c-37.641,0-68.267,30.623-68.267,68.267s30.626,68.267,68.267,68.267
	s68.267-30.623,68.267-68.267c0-13.29-3.82-26.173-11.054-37.257c-2.06-3.157-1.167-7.386,1.993-9.446
	c3.14-2.067,7.373-1.174,9.446,1.987c8.68,13.307,13.268,28.769,13.268,44.716C293.547,284.104,256.8,320.853,211.627,320.853z"/>
<path style="fill:#FFFFFF;" d="M163.84,245.76c-3.773,0-6.827-3.057-6.827-6.827c0-30.114,24.499-54.613,54.613-54.613
	c3.773,0,6.827,3.057,6.827,6.827c0,3.77-3.053,6.827-6.827,6.827c-22.586,0-40.96,18.374-40.96,40.96
	C170.667,242.703,167.613,245.76,163.84,245.76z"/>
<rect x="47.787" y="81.92" style="fill:#FFE600;" width="47.787" height="27.307"/>
<path style="fill:#602F75;" d="M95.573,116.053H47.787c-3.773,0-6.827-3.057-6.827-6.827V81.92c0-3.77,3.053-6.827,6.827-6.827
	h47.787c3.773,0,6.827,3.057,6.827,6.827v27.307C102.4,112.997,99.347,116.053,95.573,116.053z M54.613,102.4h34.133V88.747H54.613
	V102.4z"/>
<circle style="fill:#00E7FF;" cx="368.64" cy="150.187" r="20.48"/>
<path style="fill:#602F75;" d="M368.64,177.493c-15.06,0-27.307-12.25-27.307-27.307c0-15.056,12.247-27.307,27.307-27.307
	s27.307,12.25,27.307,27.307C395.947,165.243,383.7,177.493,368.64,177.493z M368.64,136.533c-7.526,0-13.653,6.124-13.653,13.653
	c0,7.53,6.127,13.653,13.653,13.653s13.653-6.124,13.653-13.653C382.293,142.657,376.166,136.533,368.64,136.533z"/>
<g>
</g>
<g>
</g>
<g>
</g>
<g>
</g>
<g>
</g>
<g>
</g>
<g>
</g>
<g>
</g>
<g>
</g>
<g>
</g>
<g>
</g>
<g>
</g>
<g>
</g>
<g>
</g>
<g>
</g>
</svg>
