<?xml version="1.0" standalone="no"?>
<!DOCTYPE svg PUBLIC "-//W3C//DTD SVG 20010904//EN"
 "http://www.w3.org/TR/2001/REC-SVG-20010904/DTD/svg10.dtd">
<svg version="1.0" xmlns="http://www.w3.org/2000/svg"
 width="400.000000pt" height="400.000000pt" viewBox="0 0 400.000000 400.000000"
 preserveAspectRatio="xMidYMid meet">

<g transform="translate(0.000000,400.000000) scale(0.100000,-0.100000)"
fill="#000000" stroke="none">
<path d="M1174 3785 c-9 -14 -21 -47 -25 -73 -7 -34 -20 -57 -49 -87 -35 -36
-42 -52 -69 -160 -33 -134 -53 -239 -75 -395 -36 -249 -37 -269 -25 -292 l12
-23 13 30 c7 17 13 24 14 17 0 -7 5 -10 11 -7 6 4 8 13 5 21 -3 8 -1 14 4 14
6 0 10 7 10 15 0 22 164 175 175 163 2 -2 9 -44 15 -93 6 -50 14 -97 17 -105
3 -8 5 -18 5 -22 -1 -5 3 -8 8 -8 5 0 9 -3 7 -8 -1 -4 3 -7 8 -7 6 0 10 5 10
12 0 17 15 29 16 12 1 -8 1 -17 0 -21 -3 -20 10 -4 25 30 13 30 15 60 10 163
-5 125 -5 127 20 155 53 60 55 114 5 114 l-28 0 -6 201 c-6 180 -9 211 -33
290 -30 97 -49 112 -80 64z m-12 -483 l5 -123 -45 -35 c-25 -19 -48 -34 -52
-34 -4 0 8 66 27 148 19 81 37 160 40 176 11 51 20 3 25 -132z m123 -461 c-3
-6 -11 -11 -16 -11 -5 0 -4 6 3 14 14 16 24 13 13 -3z"/>
<path d="M400 3744 c-63 -22 -339 -152 -373 -176 -22 -16 -27 -27 -27 -62 0
-76 23 -82 133 -31 42 19 78 31 80 27 3 -4 -1 -77 -9 -162 -7 -85 -16 -223
-20 -306 -7 -148 -6 -152 16 -174 12 -12 26 -37 32 -56 10 -39 29 -43 57 -12
28 30 29 41 36 401 4 174 10 329 14 344 6 22 17 30 51 40 55 16 97 56 112 105
10 33 9 41 -7 58 -21 24 -35 24 -95 4z"/>
<path d="M1667 3713 c-9 -11 -23 -35 -31 -54 -18 -43 -97 -358 -122 -484 -14
-70 -19 -84 -25 -65 -11 36 -51 484 -44 501 2 8 1 20 -4 27 -7 12 -13 11 -38
-2 -53 -27 -56 -51 -39 -267 9 -107 18 -210 21 -229 2 -19 7 -60 10 -90 19
-173 41 -270 63 -270 24 0 120 110 127 145 57 318 127 738 129 765 1 40 -21
51 -47 23z"/>
<path d="M540 3688 c-19 -31 -20 -52 -20 -359 0 -400 8 -569 26 -569 21 0 53
39 86 105 28 54 30 66 26 132 -3 40 -2 73 2 73 4 0 29 -37 54 -82 26 -46 64
-106 84 -135 36 -49 39 -51 62 -40 15 8 30 28 38 51 12 37 11 40 -42 125 -29
48 -65 110 -79 138 l-26 51 35 68 c46 90 64 162 64 255 0 145 -47 219 -141
219 -28 0 -60 -5 -71 -11 -14 -8 -23 -8 -31 0 -20 20 -47 11 -67 -21z m166
-103 c55 -38 72 -154 39 -260 -17 -54 -19 -55 -37 -38 -16 14 -23 15 -39 5
-19 -12 -19 -8 -19 148 0 147 1 160 18 160 10 0 27 -7 38 -15z"/>
<path d="M1793 3686 c-61 -28 -67 -48 -59 -224 3 -86 3 -191 -1 -232 -5 -41
-6 -160 -3 -265 l5 -190 25 3 c14 1 61 5 105 10 l80 7 22 45 c25 50 22 96 -6
85 -9 -4 -40 -11 -70 -16 -65 -13 -69 -8 -65 69 1 31 3 73 3 93 1 32 5 37 30
42 41 8 90 55 97 93 5 27 2 32 -26 44 -17 7 -45 13 -61 12 l-29 -1 0 155 c0
167 2 174 53 134 14 -11 32 -20 40 -20 26 0 50 39 51 81 1 34 -4 45 -26 62
-35 26 -121 33 -165 13z"/>
<path d="M2089 3659 c-35 -37 -35 -37 -54 -344 -29 -483 -29 -494 -11 -514 13
-14 16 -28 11 -55 -8 -41 9 -55 44 -37 48 26 271 214 290 245 21 34 28 81 13
90 -12 7 -68 -24 -158 -89 -42 -30 -80 -55 -83 -55 -4 0 -4 39 0 88 12 135 29
483 29 572 0 46 -4 80 -10 80 -5 0 -12 11 -16 25 -8 33 -20 32 -55 -6z"/>
<path d="M3686 3489 c-56 -14 -87 -39 -239 -196 -136 -140 -140 -143 -175
-138 -21 2 -76 7 -123 11 -79 5 -86 7 -82 25 6 23 -13 49 -35 49 -9 0 -30 -14
-47 -30 l-31 -30 -102 6 -102 7 0 28 c0 18 -7 32 -19 39 -16 8 -27 4 -59 -23
l-39 -33 -164 13 -164 13 -37 -37 c-26 -26 -34 -39 -26 -44 7 -3 144 -44 303
-89 l290 -83 80 -65 c44 -36 84 -68 88 -72 6 -5 -291 -364 -384 -464 -5 -6
-53 -4 -121 3 -236 26 -220 26 -247 -3 -14 -14 -23 -27 -20 -29 2 -2 54 -34
114 -71 61 -38 111 -70 113 -71 2 -2 -2 -13 -8 -25 -10 -18 -17 -21 -49 -15
-21 3 -87 -1 -147 -10 -117 -17 -234 -18 -297 -2 -28 7 -45 7 -58 -1 -10 -7
-27 -12 -37 -12 -10 0 -24 -6 -31 -12 -11 -10 -13 -10 -7 0 4 6 2 12 -4 12 -6
0 -13 -7 -16 -15 -4 -8 -11 -15 -16 -15 -6 0 -7 7 -4 16 4 10 1 14 -6 11 -7
-2 -11 -13 -10 -23 3 -15 0 -14 -17 6 -11 14 -20 19 -21 13 0 -7 -5 -13 -11
-13 -5 0 -8 4 -5 9 4 5 -3 7 -14 4 -18 -5 -31 -25 -29 -47 0 -5 -5 -13 -13
-17 -10 -7 -9 -9 3 -9 9 0 20 7 23 16 4 10 2 13 -7 8 -7 -4 -9 -3 -4 2 5 5 13
10 18 10 22 3 23 5 11 12 -8 6 -2 9 18 9 28 0 29 -1 14 -18 -9 -10 -19 -17
-23 -16 -3 1 -7 -2 -9 -8 -3 -12 -25 -11 368 -19 179 -3 371 -9 428 -12 l103
-7 51 -83 c28 -46 54 -84 59 -84 4 0 18 13 31 29 22 25 24 35 18 81 l-7 52 63
-4 c34 -2 61 -1 58 3 -2 4 -28 15 -57 25 -28 9 -57 21 -63 25 -6 5 -15 45 -18
88 l-7 79 43 40 c137 125 422 362 428 355 4 -4 35 -43 70 -86 l63 -79 67 -236
c37 -130 78 -268 90 -306 l23 -69 47 49 c26 27 44 51 40 54 -9 6 -30 197 -30
270 0 38 5 51 30 75 17 16 30 34 30 40 0 19 -36 46 -53 39 -19 -7 -23 8 -32
120 -6 78 -6 79 25 111 42 44 39 80 -7 80 l-31 0 -6 85 c-4 47 -9 101 -12 121
-5 34 -1 39 150 189 120 118 160 165 173 200 22 55 22 155 1 176 -18 18 -101
26 -152 13z"/>
<path d="M505 2577 c-45 -45 -65 -118 -65 -233 0 -99 9 -136 42 -171 30 -32
90 -30 159 5 54 27 54 27 60 82 3 30 9 67 13 82 l8 26 -76 4 c-82 3 -96 -7
-56 -40 21 -17 31 -96 16 -120 -11 -19 -34 -14 -47 10 -18 34 -38 208 -29 256
14 80 62 118 116 93 31 -14 31 -31 -1 -31 -35 0 -62 -42 -47 -75 14 -31 76
-51 115 -36 23 9 27 16 27 51 0 87 -51 130 -151 130 -44 0 -55 -4 -84 -33z"/>
<path d="M957 2513 c-6 -98 -34 -211 -61 -248 -22 -31 -46 -4 -46 54 0 38 34
154 64 224 7 15 1 17 -67 17 -59 0 -76 -3 -81 -16 -11 -28 -6 -33 29 -27 l34
6 -37 -73 c-30 -60 -37 -85 -40 -146 -5 -96 10 -124 68 -124 33 0 47 7 79 39
l40 40 -6 -50 -6 -50 38 25 c20 14 53 28 72 32 30 6 34 10 31 33 -2 20 -8 25
-26 24 -21 -3 -22 0 -18 30 3 17 8 80 12 140 4 82 9 107 20 107 8 0 14 6 14
14 0 12 -71 46 -96 46 -7 0 -13 -39 -17 -97z"/>
<path d="M1290 2577 c0 -26 4 -37 15 -37 8 0 15 -8 15 -17 1 -39 20 -220 26
-251 4 -18 3 -32 -2 -31 -26 5 -34 -4 -34 -37 0 -30 3 -35 18 -29 9 4 59 6
111 6 105 -2 130 8 157 61 13 25 15 48 11 103 -8 98 -24 144 -62 182 -30 30
-39 33 -93 33 -64 0 -117 14 -144 38 -17 14 -18 12 -18 -21z m204 -121 c64
-27 85 -90 45 -140 -17 -22 -28 -26 -69 -26 -27 0 -51 4 -54 8 -9 15 -19 140
-13 156 8 20 47 20 91 2z"/>
<path d="M1610 2590 c0 -11 8 -24 18 -29 16 -9 20 -28 25 -128 4 -65 10 -135
13 -155 6 -34 4 -38 -15 -38 -17 0 -21 -6 -21 -32 l0 -33 111 -3 c124 -4 157
4 182 47 22 37 22 104 1 122 -13 11 -23 10 -56 -2 -49 -17 -63 -36 -54 -73 5
-19 15 -28 36 -33 16 -3 27 -9 24 -14 -9 -16 -71 -10 -92 9 -22 19 -42 71 -42
109 0 23 3 25 45 21 l45 -3 -4 63 c-2 35 -6 66 -9 68 -3 3 -15 0 -27 -6 -17
-9 -19 -14 -10 -26 16 -19 5 -44 -19 -44 -26 0 -34 31 -23 90 8 44 9 45 45 44
45 -1 67 -18 67 -51 0 -45 32 -23 46 32 7 28 13 50 14 51 0 1 -55 4 -122 7
-68 3 -135 10 -150 16 -25 9 -28 8 -28 -9z"/>
<path d="M1200 2585 c-30 -7 -70 -14 -89 -14 -26 -1 -32 -4 -27 -17 3 -9 6
-18 6 -20 0 -2 9 -4 20 -4 25 0 35 -49 26 -133 -17 -165 -17 -164 -42 -176
-15 -6 -24 -19 -24 -32 0 -19 4 -21 38 -15 20 3 67 6 105 6 l67 0 0 34 c0 29
-3 33 -19 29 -28 -7 -36 26 -34 150 2 87 6 117 23 151 11 23 20 45 20 49 0 8
3 8 -70 -8z"/>
<path d="M156 2318 c-3 -18 -8 -49 -11 -70 -7 -46 -8 -319 0 -326 3 -3 78 7
168 22 89 14 189 31 222 37 65 10 115 16 158 18 20 1 27 6 25 17 -2 10 3 18
10 20 7 1 8 0 2 -3 -20 -9 2 -23 37 -23 31 0 40 12 12 16 -5 1 -13 2 -19 3 -5
0 -10 8 -10 16 0 8 5 15 10 15 6 0 10 -4 10 -10 0 -5 7 -10 15 -10 9 0 18 -6
21 -13 3 -8 11 -14 19 -14 12 0 12 3 2 16 -6 8 -7 12 -2 9 6 -3 19 -2 30 3 16
6 14 8 -13 8 -21 1 -31 5 -26 12 4 7 -2 6 -17 -1 -23 -13 -24 -12 -6 7 16 19
16 21 -2 37 -14 13 -21 14 -27 5 -4 -7 -3 -10 3 -6 6 4 16 1 22 -7 9 -11 8
-15 -5 -20 -9 -3 -21 -3 -27 1 -7 4 -18 8 -26 10 -8 1 -18 8 -22 15 -5 7 -9 8
-9 2 0 -6 -15 -9 -35 -8 -26 2 -33 0 -28 -12 4 -10 0 -13 -13 -8 -18 5 -18 5
0 -10 11 -9 14 -16 8 -16 -7 0 -15 0 -19 0 -4 0 -8 11 -10 26 -2 14 0 23 5 20
6 -3 16 1 23 10 8 10 22 13 38 10 14 -3 20 -3 13 0 -6 3 -10 9 -8 13 3 4 -6 7
-19 7 -13 0 -21 -4 -18 -10 4 -5 -1 -7 -10 -3 -9 3 -19 3 -21 -2 -9 -13 -106
-3 -132 14 -31 20 -61 84 -66 139 l-4 40 -69 17 c-39 10 -93 18 -122 18 -51 1
-52 0 -57 -31z m428 -223 c-4 -8 -8 -15 -10 -15 -2 0 -4 7 -4 15 0 8 4 15 10
15 5 0 7 -7 4 -15z m154 -32 c-5 -7 -14 -10 -19 -7 -16 10 -9 23 10 21 15 -1
17 -4 9 -14z m-74 -18 c3 -8 1 -15 -4 -15 -6 0 -10 7 -10 15 0 8 2 15 4 15 2
0 6 -7 10 -15z m31 -4 c3 -5 2 -12 -3 -15 -5 -3 -9 1 -9 9 0 17 3 19 12 6z"/>
<path d="M701 2144 c0 -11 3 -14 6 -6 3 7 2 16 -1 19 -3 4 -6 -2 -5 -13z"/>
<path d="M1630 2116 c0 -2 7 -7 16 -10 8 -3 12 -2 9 4 -6 10 -25 14 -25 6z"/>
<path d="M1523 2078 c23 -31 37 -36 37 -12 0 8 -4 13 -9 10 -10 -6 -34 18 -26
26 3 2 -1 5 -9 5 -11 0 -9 -8 7 -29z"/>
<path d="M881 2078 c-13 -20 -12 -22 1 -11 8 7 18 10 22 6 4 -4 4 0 0 10 -8
21 -6 21 -23 -5z"/>
<path d="M1316 2068 c3 -5 10 -6 15 -3 13 9 11 12 -6 12 -8 0 -12 -4 -9 -9z"/>
<path d="M1352 2065 c-10 -12 -10 -15 2 -15 7 0 16 7 20 15 7 19 -5 19 -22 0z"/>
<path d="M1494 2071 c4 -5 0 -12 -6 -14 -8 -3 -6 -6 5 -6 9 -1 17 6 17 14 0 8
-5 15 -11 15 -5 0 -8 -4 -5 -9z"/>
<path d="M935 2059 c-4 -6 -14 -8 -22 -5 -8 3 -11 1 -8 -4 3 -6 12 -10 20 -10
7 0 16 -6 18 -12 3 -7 5 -1 4 15 -2 30 -3 32 -12 16z"/>
<path d="M1030 2060 c-8 -5 -12 -11 -9 -14 2 -3 11 -1 19 4 8 5 12 11 9 14 -2
3 -11 1 -19 -4z"/>
<path d="M1450 2060 c-13 -8 -12 -10 3 -10 9 0 17 5 17 10 0 12 -1 12 -20 0z"/>
<path d="M1135 2050 c-3 -5 -1 -10 4 -10 6 0 11 5 11 10 0 6 -2 10 -4 10 -3 0
-8 -4 -11 -10z"/>
<path d="M858 2023 c6 -2 18 -2 25 0 6 3 1 5 -13 5 -14 0 -19 -2 -12 -5z"/>
<path d="M908 2023 c7 -3 16 -2 19 1 4 3 -2 6 -13 5 -11 0 -14 -3 -6 -6z"/>
<path d="M2299 1955 c-198 -175 -531 -422 -844 -627 -174 -113 -515 -283 -675
-335 -126 -42 -267 -67 -309 -56 -20 5 -22 11 -19 47 3 33 -2 51 -27 91 -18
28 -40 65 -49 83 l-17 32 31 0 c18 0 29 -4 25 -10 -3 -5 -1 -10 4 -10 6 0 11
4 11 9 0 6 15 12 32 14 18 2 -1 5 -42 5 l-76 2 -37 76 c-21 42 -36 78 -34 80
2 2 33 4 70 5 56 1 64 4 52 15 -16 16 -39 19 -30 4 3 -5 0 -10 -8 -10 -10 0
-14 7 -10 23 3 14 2 18 -4 10 -16 -22 -32 0 -20 27 5 14 9 33 8 43 -1 9 2 17
7 17 10 0 10 -30 0 -45 -4 -6 6 -11 22 -11 21 -1 27 3 25 15 -2 9 -4 18 -4 20
-1 3 -7 -3 -14 -13 -12 -16 -13 -16 -13 3 0 11 3 18 6 16 3 -2 12 1 20 6 13 9
13 10 0 8 -22 -2 -60 12 -60 22 0 5 -11 9 -25 9 -31 0 -33 20 -2 21 12 0 16 3
10 6 -7 2 -13 9 -13 14 0 6 6 7 13 3 7 -5 6 -1 -2 10 -13 16 -13 17 0 15 20
-4 59 10 59 22 0 6 -9 4 -21 -4 -21 -15 -63 -12 -53 4 3 5 0 9 -5 9 -6 0 -11
-10 -11 -22 0 -19 -2 -20 -10 -8 -8 12 -10 12 -10 -5 0 -15 -2 -17 -9 -6 -7
11 -9 11 -14 0 -4 -10 -6 -9 -6 4 -1 9 -5 17 -11 17 -5 0 -10 8 -10 17 0 9 -2
14 -5 11 -3 -3 0 -25 6 -50 11 -40 10 -50 -19 -125 -80 -207 -109 -414 -78
-548 21 -88 52 -140 117 -199 106 -95 267 -111 474 -46 117 36 190 68 260 114
27 18 78 49 113 67 266 144 767 579 1172 1020 170 185 180 200 59 94z m-2049
-430 c-7 -8 -7 -21 -1 -37 5 -15 6 -30 0 -39 -7 -11 -9 -10 -10 6 -1 11 -2 26
-2 33 1 6 -3 12 -8 12 -5 0 -9 7 -9 15 0 8 6 14 13 13 6 -2 11 3 9 10 -1 8 2
11 8 7 8 -5 8 -11 0 -20z m24 -26 c-3 -5 -10 -7 -15 -3 -5 3 -7 10 -3 15 3 5
10 7 15 3 5 -3 7 -10 3 -15z m39 -44 c-3 -16 -9 -32 -12 -35 -3 -3 -6 -14 -6
-24 0 -11 -7 -21 -15 -23 -12 -4 -13 -3 -1 5 7 5 10 15 6 22 -6 9 -9 9 -16 -1
-6 -10 -9 -10 -9 -2 0 7 7 16 16 21 13 8 14 13 4 31 -6 13 -9 25 -6 29 3 3 6
0 6 -6 0 -6 7 -9 15 -6 11 5 13 10 5 19 -5 6 -7 15 -3 19 12 12 22 -18 16 -49z"/>
<path d="M3658 1953 c7 -3 16 -2 19 1 4 3 -2 6 -13 5 -11 0 -14 -3 -6 -6z"/>
<path d="M3720 1950 c-13 -8 -12 -10 3 -10 9 0 17 5 17 10 0 12 -1 12 -20 0z"/>
<path d="M3775 1940 c-19 -8 -19 -9 3 -9 12 -1 22 4 22 9 0 6 -1 10 -2 9 -2 0
-12 -4 -23 -9z"/>
<path d="M270 1636 c0 -2 9 -6 20 -9 11 -3 20 -1 20 4 0 5 -9 9 -20 9 -11 0
-20 -2 -20 -4z"/>
<path d="M218 1623 c6 -2 18 -2 25 0 6 3 1 5 -13 5 -14 0 -19 -2 -12 -5z"/>
<path d="M336 1564 c-5 -14 -4 -15 9 -4 17 14 19 20 6 20 -5 0 -12 -7 -15 -16z"/>
<path d="M350 1521 c0 -6 4 -12 8 -15 5 -3 9 1 9 9 0 8 -4 15 -9 15 -4 0 -8
-4 -8 -9z"/>
<path d="M583 1203 c15 -2 39 -2 55 0 15 2 2 4 -28 4 -30 0 -43 -2 -27 -4z"/>
<path d="M380 1169 c0 -5 5 -7 10 -4 6 3 10 8 10 11 0 2 -4 4 -10 4 -5 0 -10
-5 -10 -11z"/>
<path d="M410 1123 c0 -15 18 -35 23 -27 3 5 -1 15 -9 22 -8 7 -14 9 -14 5z"/>
<path d="M480 991 c5 -11 15 -23 21 -27 6 -3 3 5 -6 20 -20 30 -30 35 -15 7z"/>
<path d="M3035 10 c-24 -6 -18 -8 29 -9 33 0 57 1 55 3 -11 9 -57 12 -84 6z"/>
<path d="M808 3 c34 -2 90 -2 125 0 34 2 6 3 -63 3 -69 0 -97 -1 -62 -3z"/>
<path d="M1083 3 c26 -2 67 -2 90 0 23 2 2 3 -48 3 -49 0 -68 -1 -42 -3z"/>
<path d="M1443 3 c9 -2 25 -2 35 0 9 3 1 5 -18 5 -19 0 -27 -2 -17 -5z"/>
<path d="M1613 3 c9 -2 25 -2 35 0 9 3 1 5 -18 5 -19 0 -27 -2 -17 -5z"/>
<path d="M1853 3 c9 -2 25 -2 35 0 9 3 1 5 -18 5 -19 0 -27 -2 -17 -5z"/>
<path d="M2003 3 c31 -2 83 -2 115 0 31 2 5 3 -58 3 -63 0 -89 -1 -57 -3z"/>
<path d="M2233 3 c9 -2 23 -2 30 0 6 3 -1 5 -18 5 -16 0 -22 -2 -12 -5z"/>
<path d="M2483 3 c9 -2 23 -2 30 0 6 3 -1 5 -18 5 -16 0 -22 -2 -12 -5z"/>
<path d="M2603 3 c9 -2 25 -2 35 0 9 3 1 5 -18 5 -19 0 -27 -2 -17 -5z"/>
<path d="M2813 3 c9 -2 23 -2 30 0 6 3 -1 5 -18 5 -16 0 -22 -2 -12 -5z"/>
</g>
</svg>
